Coordinates
version=1
nRows=13
nColumns=40
inDegrees=yes

Units are S.I. units (second, meters, Newtons, ...)
If the header above contains a line with 'inDegrees', this indicates whether rotational values are in degrees (yes) or radians (no).

endheader
time	pelvis_tilt	pelvis_list	pelvis_rotation	pelvis_tx	pelvis_ty	pelvis_tz	hip_flexion_r	hip_adduction_r	hip_rotation_r	knee_angle_r	knee_angle_r_beta	ankle_angle_r	subtalar_angle_r	mtp_angle_r	hip_flexion_l	hip_adduction_l	hip_rotation_l	knee_angle_l	knee_angle_l_beta	ankle_angle_l	subtalar_angle_l	mtp_angle_l	lumbar_extension	lumbar_bending	lumbar_rotation	arm_flex_r	arm_add_r	arm_rot_r	elbow_flex_r	pro_sup_r	wrist_flex_r	wrist_dev_r	arm_flex_l	arm_add_l	arm_rot_l	elbow_flex_l	pro_sup_l	wrist_flex_l	wrist_dev_l
      0.81000000	     -7.47747044	      2.39901450	     -4.20930642	      0.20117798	      0.86760946	     -1.19038501	     24.35207390	    -28.58842342	    -24.23352761	     30.61194484	      0.53427923	      1.31111743	      3.58990765	      0.00000000	     20.08903371	    -26.75746408	    -34.99017812	     31.05502709	      0.54201247	      3.37155182	     12.92466342	      0.00000000	    -12.08792515	     -1.63599480	      2.10636710	     44.99237014	    -15.00170187	     44.99237014	     75.00017744	     45.00000026	      0.00000000	      0.00000000	     44.99237014	    -15.00170187	     44.99237014	     75.00017744	     45.00000026	      0.00000000	      0.00000000
      0.81500000	     -7.66683221	      2.34139503	     -4.23878802	      0.20026425	      0.86571108	     -1.19030748	     25.04947906	    -28.68537053	    -23.94252688	     31.39392368	      0.54792733	      1.59589523	      3.44059671	      0.00000000	     20.75469715	    -27.13508042	    -34.75480212	     31.90471126	      0.55684226	      3.66991516	     12.72369574	      0.00000000	    -12.03000683	     -1.58570531	      2.14550522	     44.99248103	    -15.00166836	     44.99248103	     75.00017740	     45.00000026	      0.00000000	      0.00000000	     44.99248103	    -15.00166836	     44.99248103	     75.00017740	     45.00000026	      0.00000000	      0.00000000
      0.82000000	     -7.81383243	      2.29907218	     -4.27555610	      0.19939270	      0.86387906	     -1.19016882	     25.69885729	    -28.78922458	    -23.65192000	     32.15668183	      0.56123997	      1.90332351	      3.31426123	      0.00000000	     21.33105867	    -27.47938658	    -34.54166396	     32.68512450	      0.57046304	      3.98965876	     12.63459306	      0.00000000	    -12.01126162	     -1.55671303	      2.20266550	     44.99258011	    -15.00163836	     44.99258011	     75.00017736	     45.00000026	      0.00000000	      0.00000000	     44.99258011	    -15.00163836	     44.99258011	     75.00017736	     45.00000026	      0.00000000	      0.00000000
      0.82500000	     -7.98426983	      2.38997884	     -4.32304270	      0.19853387	      0.86193488	     -1.18994645	     26.46281535	    -29.04604421	    -23.30766024	     33.00286884	      0.57600872	      2.26141578	      3.22582716	      0.00000000	     21.88991324	    -27.66956619	    -34.37108836	     33.40552195	      0.58303635	      4.30655434	     12.54298226	      0.00000000	    -11.94870516	     -1.70656996	      2.25329502	     44.99303101	    -15.00150071	     44.99303101	     75.00017718	     45.00000026	      0.00000000	      0.00000000	     44.99303101	    -15.00150071	     44.99303101	     75.00017718	     45.00000026	      0.00000000	      0.00000000
      0.83000000	     -8.07315576	      2.29567344	     -4.33660780	      0.19761753	      0.86026174	     -1.18986703	     26.97372373	    -29.07665644	    -23.07446035	     33.65213236	      0.58734051	      2.43708228	      2.99990377	      0.00000000	     22.42112777	    -28.01342085	    -34.06030909	     34.12933592	      0.59566928	      4.51584707	     12.16765189	      0.00000000	    -12.03016290	     -1.62277563	      2.28297880	     44.99312851	    -15.00147255	     44.99312851	     75.00017714	     45.00000026	      0.00000000	      0.00000000	     44.99312851	    -15.00147255	     44.99312851	     75.00017714	     45.00000026	      0.00000000	      0.00000000
      0.83500000	     -8.24146879	      2.21838052	     -4.30185947	      0.19663178	      0.85855330	     -1.18987471	     27.51966131	    -29.10403980	    -22.83218282	     34.20870483	      0.59705453	      2.57136507	      2.74358488	      0.00000000	     23.03457694	    -28.24186853	    -33.58293909	     34.68807419	      0.60542111	      4.66381659	     11.70145955	      0.00000000	    -12.02777117	     -1.55376058	      2.25236875	     44.99322307	    -15.00144525	     44.99322307	     75.00017711	     45.00000026	      0.00000000	      0.00000000	     44.99322307	    -15.00144525	     44.99322307	     75.00017711	     45.00000026	      0.00000000	      0.00000000
      0.84000000	     -8.39086147	      2.15370213	     -4.43124205	      0.19587988	      0.85627103	     -1.18953383	     28.29521889	    -29.22153677	    -22.57160258	     35.20198391	      0.61439052	      3.13629323	      2.83901464	      0.00000000	     23.59515594	    -28.82068396	    -33.74813593	     35.70881963	      0.62323647	      5.23814583	     12.29944195	      0.00000000	    -11.97952154	     -1.50266301	      2.46122186	     44.99332915	    -15.00141446	     44.99332915	     75.00017707	     45.00000026	      0.00000000	      0.00000000	     44.99332915	    -15.00141446	     44.99332915	     75.00017707	     45.00000026	      0.00000000	      0.00000000
      0.84500000	     -8.58414600	      2.07348341	     -4.50495272	      0.19499903	      0.85419267	     -1.18931377	     28.99851275	    -29.26613518	    -22.31224958	     35.95003689	      0.62744651	      3.45849204	      2.86269246	      0.00000000	     24.21271275	    -29.26634993	    -33.64212773	     36.50943522	      0.63720985	      5.54050754	     12.44323295	      0.00000000	    -11.91933176	     -1.44472219	      2.54128064	     44.99343924	    -15.00138251	     44.99343924	     75.00017703	     45.00000026	      0.00000000	      0.00000000	     44.99343924	    -15.00138251	     44.99343924	     75.00017703	     45.00000026	      0.00000000	      0.00000000
      0.85000000	     -8.77693564	      2.01945589	     -4.54396212	      0.19410070	      0.85208951	     -1.18916948	     29.69750848	    -29.33717424	    -22.02434385	     36.70168672	      0.64056527	      3.73752835	      2.73060524	      0.00000000	     24.84473293	    -29.62917923	    -33.43224314	     37.27102361	      0.65050208	      5.82374626	     12.35294621	      0.00000000	    -11.85244362	     -1.40165287	      2.61139658	     44.99352954	    -15.00135603	     44.99352954	     75.00017700	     45.00000026	      0.00000000	      0.00000000	     44.99352954	    -15.00135603	     44.99352954	     75.00017700	     45.00000026	      0.00000000	      0.00000000
      0.85500000	     -8.82758668	      1.97261086	     -4.55175562	      0.19319381	      0.85038288	     -1.18907984	     30.17804286	    -29.42743536	    -21.81706670	     37.34856437	      0.65185542	      3.91027407	      2.50772138	      0.00000000	     25.30732851	    -29.89381114	    -33.15244476	     37.90730649	      0.66160731	      6.01045933	     12.03553232	      0.00000000	    -11.98338075	     -1.38425017	      2.61038370	     44.99359744	    -15.00133642	     44.99359744	     75.00017698	     45.00000026	      0.00000000	      0.00000000	     44.99359744	    -15.00133642	     44.99359744	     75.00017698	     45.00000026	      0.00000000	      0.00000000
      0.86000000	     -8.95941040	      1.91464382	     -4.56146874	      0.19228028	      0.84832835	     -1.18898963	     30.79434634	    -29.53097673	    -21.60714418	     38.11418314	      0.66521799	      4.20232429	      2.39941642	      0.00000000	     25.89299974	    -30.24175902	    -32.92932796	     38.66111076	      0.67476368	      6.31075909	     11.97259390	      0.00000000	    -12.00801818	     -1.34136997	      2.64719355	     44.99367124	    -15.00131501	     44.99367124	     75.00017695	     45.00000026	      0.00000000	      0.00000000	     44.99367124	    -15.00131501	     44.99367124	     75.00017695	     45.00000026	      0.00000000	      0.00000000
      0.86500000	     -9.28142566	      1.83839411	     -4.62933313	      0.19145135	      0.84578206	     -1.18876026	     31.66704618	    -29.58032622	    -21.32820626	     38.93723229	      0.67958291	      4.64808040	      2.51682758	      0.00000000	     26.66609579	    -30.72045348	    -32.81293229	     39.49362245	      0.68929375	      6.72447767	     12.34110310	      0.00000000	    -11.76405093	     -1.26524093	      2.78643953	     44.99375039	    -15.00129187	     44.99375039	     75.00017692	     45.00000026	      0.00000000	      0.00000000	     44.99375039	    -15.00129187	     44.99375039	     75.00017692	     45.00000026	      0.00000000	      0.00000000
      0.87000000	     -9.48628791	      1.76563454	     -4.65774450	      0.19055748	      0.84352917	     -1.18862158	     32.36584805	    -29.64282203	    -21.08859491	     39.69345742	      0.69278152	      4.95640773	      2.45576533	      0.00000000	     27.33688073	    -31.11475564	    -32.59257972	     40.26868368	      0.70282112	      7.03144611	     12.37226071	      0.00000000	    -11.69105059	     -1.19970361	      2.84529105	     44.99381482	    -15.00127283	     44.99381482	     75.00017690	     45.00000026	      0.00000000	      0.00000000	     44.99381482	    -15.00127283	     44.99381482	     75.00017690	     45.00000026	      0.00000000	      0.00000000
